<svg width="15.000000" height="14.000000" viewBox="0 0 15 14" fill="none" xmlns="http://www.w3.org/2000/svg" xmlns:xlink="http://www.w3.org/1999/xlink">
	<desc>
			Created with Pixso.
	</desc>
	<defs/>
	<path id="Vector" d="M11.8 10.33C12 10.33 12.18 10.36 12.35 10.44C12.53 10.51 12.68 10.61 12.8 10.74C12.93 10.86 13.03 11.01 13.11 11.19C13.18 11.36 13.22 11.54 13.22 11.74C13.22 11.93 13.18 12.11 13.11 12.29C13.03 12.46 12.93 12.61 12.8 12.73C12.68 12.86 12.53 12.96 12.35 13.03C12.18 13.11 12 13.14 11.8 13.14C11.6 13.14 11.42 13.11 11.25 13.03C11.08 12.96 10.93 12.86 10.8 12.73C10.67 12.61 10.57 12.46 10.49 12.29C10.42 12.11 10.38 11.93 10.38 11.74C10.38 11.5 10.22 11.27 9.99 11.27L7 11.27C6.77 11.27 6.61 11.5 6.61 11.74C6.61 11.93 6.57 12.11 6.5 12.29C6.42 12.46 6.32 12.61 6.19 12.73C6.07 12.86 5.91 12.96 5.74 13.03C5.57 13.11 5.39 13.14 5.19 13.14C4.99 13.14 4.81 13.11 4.64 13.03C4.46 12.96 4.31 12.86 4.19 12.73C4.06 12.61 3.96 12.46 3.88 12.29C3.81 12.11 3.77 11.93 3.77 11.74C3.77 11.47 3.84 11.22 3.99 10.99C4.23 10.6 4.47 10.14 4.32 9.71L1.62 1.62C1.48 1.21 1.1 0.93 0.67 0.93L0.46 0.93C0.21 0.93 0 0.72 0 0.46C0 0.21 0.21 0 0.46 0L1.35 0C1.78 0 2.16 0.27 2.3 0.68L2.47 1.19C2.6 1.6 2.99 1.87 3.42 1.87L13.72 1.87C14.4 1.87 14.88 2.54 14.67 3.19L13.14 7.77C13 8.17 12.62 8.45 12.19 8.45L6.21 8.45C5.56 8.45 5.11 9.08 5.31 9.68C5.44 10.07 5.8 10.33 6.21 10.33L11.8 10.33ZM5.66 11.74C5.66 11.61 5.61 11.5 5.52 11.41C5.43 11.31 5.32 11.27 5.19 11.27C5.06 11.27 4.95 11.31 4.86 11.41C4.76 11.5 4.72 11.61 4.72 11.74C4.72 11.86 4.76 11.97 4.86 12.07C4.95 12.16 5.06 12.21 5.19 12.21C5.32 12.21 5.43 12.16 5.52 12.07C5.61 11.97 5.66 11.86 5.66 11.74ZM11.8 12.21C11.93 12.21 12.04 12.16 12.13 12.07C12.23 11.97 12.27 11.86 12.27 11.74C12.27 11.61 12.23 11.5 12.13 11.41C12.04 11.31 11.93 11.27 11.8 11.27C11.67 11.27 11.56 11.31 11.47 11.41C11.38 11.5 11.33 11.61 11.33 11.74C11.33 11.86 11.38 11.97 11.47 12.07C11.56 12.16 11.67 12.21 11.8 12.21Z" fill="#FFFFFF" fill-opacity="1.000000" fill-rule="nonzero"/>
</svg>
