<svg width="15.000000" height="14.000000" viewBox="0 0 15 14" fill="none" xmlns="http://www.w3.org/2000/svg" xmlns:xlink="http://www.w3.org/1999/xlink">
	<desc>
			Created with Pixso.
	</desc>
	<defs/>
	<path id="Vector" d="M10.65 0C11.2 0 11.72 0.11 12.21 0.33C12.7 0.56 13.12 0.86 13.49 1.24C13.85 1.63 14.14 2.08 14.34 2.6C14.55 3.13 14.66 3.68 14.66 4.27C14.66 4.84 14.56 5.39 14.36 5.91C14.16 6.44 13.87 6.9 13.49 7.29L7.98 13.15C7.51 13.66 6.71 13.66 6.23 13.15L0.72 7.29C0.35 6.9 0.06 6.44 -0.14 5.91C-0.34 5.39 -0.44 4.84 -0.45 4.27C-0.45 3.68 -0.35 3.13 -0.14 2.61C0.07 2.09 0.35 1.64 0.72 1.25C1.09 0.86 1.52 0.56 2 0.33C2.48 0.11 3 0 3.56 0C3.97 0 4.34 0.05 4.66 0.14C4.98 0.24 5.27 0.38 5.54 0.55C5.81 0.73 6.07 0.94 6.32 1.19C6.33 1.19 6.33 1.19 6.33 1.19C6.75 1.62 7.45 1.62 7.88 1.19C8.13 0.94 8.39 0.73 8.66 0.56C8.94 0.39 9.24 0.25 9.56 0.14C9.88 0.04 10.24 -0.01 10.65 0ZM12.82 6.58C13.11 6.27 13.33 5.92 13.48 5.52C13.63 5.12 13.71 4.7 13.71 4.27C13.71 3.81 13.63 3.39 13.47 3C13.32 2.6 13.1 2.26 12.82 1.97C12.55 1.67 12.22 1.45 11.85 1.28C11.48 1.12 11.08 1.04 10.65 1.03C10.23 1.03 9.87 1.1 9.55 1.24C9.23 1.37 8.93 1.56 8.66 1.79C8.39 2.02 8.13 2.27 7.89 2.55C7.88 2.55 7.88 2.56 7.88 2.56C7.46 3.03 6.74 3.03 6.33 2.56C6.08 2.28 5.82 2.02 5.55 1.79C5.28 1.56 4.98 1.37 4.66 1.22C4.33 1.07 3.97 1 3.56 1C3.14 1 2.74 1.08 2.37 1.25C2 1.42 1.67 1.65 1.4 1.95C1.12 2.25 0.9 2.6 0.74 3C0.58 3.39 0.49 3.82 0.49 4.27C0.49 4.7 0.57 5.12 0.72 5.52C0.88 5.92 1.1 6.27 1.4 6.58L6.23 11.73C6.71 12.23 7.51 12.23 7.98 11.73L12.82 6.58Z" fill="#FFFFFF" fill-opacity="1.000000" fill-rule="nonzero"/>
</svg>
