<svg width="17.000000" height="12.000000" viewBox="0 0 17 12" fill="none" xmlns="http://www.w3.org/2000/svg" xmlns:xlink="http://www.w3.org/1999/xlink">
	<desc>
			Created with Pixso.
	</desc>
	<defs/>
	<path id="Vector" d="M7.83 0C8.66 0 9.47 0.14 10.25 0.42C11.04 0.71 11.79 1.1 12.51 1.6C13.23 2.1 13.91 2.7 14.55 3.4C14.97 3.85 15.36 4.32 15.73 4.81C16.1 5.29 16.11 5.97 15.74 6.46C15.37 6.95 14.97 7.42 14.56 7.86C13.92 8.55 13.24 9.14 12.52 9.65C11.79 10.15 11.04 10.55 10.25 10.84C9.47 11.12 8.66 11.27 7.83 11.27C7 11.27 6.19 11.12 5.4 10.84C4.62 10.55 3.87 10.16 3.15 9.66C2.43 9.16 1.74 8.57 1.1 7.88C0.67 7.42 0.27 6.95 -0.1 6.45C-0.46 5.96 -0.46 5.3 -0.09 4.82C0.28 4.32 0.68 3.85 1.1 3.4C1.74 2.71 2.42 2.11 3.14 1.61C3.86 1.11 4.61 0.72 5.4 0.42C6.2 0.13 7 -0.01 7.83 0ZM11.02 5.63C11.02 5.05 10.93 4.5 10.77 3.99C10.6 3.48 10.37 3.03 10.08 2.65C9.78 2.27 9.45 1.97 9.07 1.75C8.68 1.53 8.27 1.41 7.83 1.4C7.39 1.4 6.98 1.51 6.59 1.73C6.2 1.95 5.87 2.26 5.58 2.65C5.29 3.04 5.06 3.48 4.9 3.99C4.73 4.5 4.65 5.04 4.64 5.63C4.64 6.21 4.72 6.76 4.89 7.27C5.06 7.78 5.29 8.23 5.58 8.61C5.87 8.99 6.21 9.3 6.59 9.52C6.97 9.74 7.39 9.85 7.83 9.86C8.27 9.86 8.68 9.75 9.07 9.53C9.45 9.31 9.79 9 10.08 8.61C10.37 8.22 10.59 7.78 10.76 7.27C10.92 6.76 11.01 6.22 11.02 5.63ZM1.54 6.52C1.84 6.85 2.14 7.16 2.46 7.46C2.63 7.62 2.81 7.78 3 7.93C3.36 8.23 3.88 7.79 3.78 7.33C3.65 6.78 3.58 6.21 3.58 5.63C3.58 5.06 3.64 4.5 3.77 3.95C3.88 3.48 3.36 3.03 2.98 3.33C2.8 3.48 2.63 3.63 2.46 3.79C2.14 4.09 1.84 4.4 1.54 4.74C1.08 5.25 1.09 6.01 1.54 6.52ZM12.67 7.93C12.85 7.78 13.03 7.63 13.2 7.47C13.51 7.17 13.82 6.86 14.12 6.53C14.57 6.01 14.57 5.25 14.11 4.74C13.82 4.41 13.51 4.1 13.2 3.8C13.02 3.64 12.84 3.48 12.66 3.33C12.29 3.03 11.77 3.47 11.88 3.94C12.01 4.49 12.07 5.05 12.08 5.63C12.08 6.2 12.01 6.76 11.89 7.31C11.78 7.78 12.3 8.23 12.67 7.93ZM7.83 7.04C7.68 7.04 7.54 7 7.41 6.93C7.29 6.86 7.18 6.76 7.08 6.63C6.99 6.51 6.91 6.36 6.85 6.18C6.79 6 6.76 5.82 6.77 5.63C6.77 5.43 6.79 5.25 6.85 5.08C6.9 4.91 6.98 4.76 7.07 4.64C7.17 4.52 7.28 4.41 7.41 4.33C7.55 4.25 7.68 4.21 7.83 4.22C7.98 4.22 8.12 4.26 8.24 4.33C8.37 4.41 8.48 4.5 8.58 4.63C8.67 4.75 8.75 4.9 8.81 5.08C8.87 5.26 8.9 5.44 8.89 5.63C8.89 5.83 8.86 6.01 8.81 6.18C8.75 6.35 8.68 6.5 8.58 6.62C8.49 6.75 8.38 6.85 8.24 6.93C8.11 7.01 7.97 7.05 7.83 7.04Z" fill="#FFFFFF" fill-opacity="1.000000" fill-rule="nonzero"/>
</svg>
